<?xml version="1.0" encoding="UTF-8"?>
<svg id="Layer_1" data-name="Layer 1" xmlns="http://www.w3.org/2000/svg" viewBox="0 0 800 800">
  <defs>
    <style>
      .cls-1 {
        fill: none;
        stroke: #f37784;
        stroke-miterlimit: 10;
      }
    </style>
  </defs>
  <rect class="cls-1" width="100.12" height="100.12"/>
  <rect class="cls-1" x="100.12" width="100.12" height="100.12"/>
  <rect class="cls-1" x="200.24" width="100.12" height="100.12"/>
  <rect class="cls-1" x="300.36" width="100.12" height="100.12"/>
  <rect class="cls-1" x="400.49" width="100.12" height="100.12"/>
  <rect class="cls-1" x="500.61" width="100.12" height="100.12"/>
  <rect class="cls-1" x="600.73" width="100.12" height="100.12"/>
  <rect class="cls-1" x="700.85" width="100.12" height="100.12"/>
  <rect class="cls-1" y="100.12" width="100.12" height="100.12"/>
  <rect class="cls-1" x="100.12" y="100.12" width="100.12" height="100.12"/>
  <rect class="cls-1" x="200.24" y="100.12" width="100.12" height="100.12"/>
  <rect class="cls-1" x="300.36" y="100.12" width="100.12" height="100.12"/>
  <rect class="cls-1" x="400.49" y="100.12" width="100.12" height="100.12"/>
  <rect class="cls-1" x="500.61" y="100.12" width="100.12" height="100.12"/>
  <rect class="cls-1" x="600.73" y="100.12" width="100.12" height="100.12"/>
  <rect class="cls-1" x="700.85" y="100.12" width="100.12" height="100.12"/>
  <rect class="cls-1" y="200.24" width="100.12" height="100.12"/>
  <rect class="cls-1" x="100.12" y="200.24" width="100.12" height="100.12"/>
  <rect class="cls-1" x="200.24" y="200.24" width="100.12" height="100.12"/>
  <rect class="cls-1" x="300.36" y="200.24" width="100.12" height="100.12"/>
  <rect class="cls-1" x="400.49" y="200.24" width="100.12" height="100.12"/>
  <rect class="cls-1" x="500.61" y="200.24" width="100.12" height="100.12"/>
  <rect class="cls-1" x="600.73" y="200.24" width="100.12" height="100.12"/>
  <rect class="cls-1" x="700.85" y="200.24" width="100.12" height="100.12"/>
  <rect class="cls-1" y="300.36" width="100.12" height="100.12"/>
  <rect class="cls-1" x="100.12" y="300.36" width="100.12" height="100.12"/>
  <rect class="cls-1" x="200.24" y="300.36" width="100.12" height="100.12"/>
  <rect class="cls-1" x="300.36" y="300.36" width="100.12" height="100.12"/>
  <rect class="cls-1" x="400.49" y="300.36" width="100.12" height="100.12"/>
  <rect class="cls-1" x="500.61" y="300.36" width="100.12" height="100.12"/>
  <rect class="cls-1" x="600.73" y="300.36" width="100.12" height="100.12"/>
  <rect class="cls-1" x="700.85" y="300.36" width="100.12" height="100.12"/>
  <rect class="cls-1" y="400.49" width="100.12" height="100.12"/>
  <rect class="cls-1" x="100.12" y="400.49" width="100.12" height="100.12"/>
  <rect class="cls-1" x="200.24" y="400.49" width="100.12" height="100.12"/>
  <rect class="cls-1" x="300.36" y="400.49" width="100.12" height="100.12"/>
  <rect class="cls-1" x="400.49" y="400.49" width="100.12" height="100.12"/>
  <rect class="cls-1" x="500.61" y="400.49" width="100.12" height="100.12"/>
  <rect class="cls-1" x="600.73" y="400.49" width="100.12" height="100.12"/>
  <rect class="cls-1" x="700.85" y="400.49" width="100.12" height="100.12"/>
  <rect class="cls-1" y="500.61" width="100.12" height="100.12"/>
  <rect class="cls-1" x="100.12" y="500.61" width="100.12" height="100.12"/>
  <rect class="cls-1" x="200.24" y="500.61" width="100.12" height="100.12"/>
  <rect class="cls-1" x="300.36" y="500.61" width="100.12" height="100.12"/>
  <rect class="cls-1" x="400.49" y="500.61" width="100.12" height="100.12"/>
  <rect class="cls-1" x="500.61" y="500.61" width="100.12" height="100.12"/>
  <rect class="cls-1" x="600.73" y="500.61" width="100.12" height="100.12"/>
  <rect class="cls-1" x="700.85" y="500.61" width="100.12" height="100.12"/>
  <rect class="cls-1" y="600.73" width="100.12" height="100.12"/>
  <rect class="cls-1" x="100.12" y="600.73" width="100.12" height="100.12"/>
  <rect class="cls-1" x="200.24" y="600.73" width="100.12" height="100.12"/>
  <rect class="cls-1" x="300.36" y="600.73" width="100.12" height="100.12"/>
  <rect class="cls-1" x="400.49" y="600.73" width="100.12" height="100.12"/>
  <rect class="cls-1" x="500.61" y="600.73" width="100.12" height="100.12"/>
  <rect class="cls-1" x="600.73" y="600.73" width="100.12" height="100.12"/>
  <rect class="cls-1" x="700.85" y="600.73" width="100.12" height="100.12"/>
  <rect class="cls-1" y="700.85" width="100.12" height="100.12"/>
  <rect class="cls-1" x="100.12" y="700.85" width="100.12" height="100.12"/>
  <rect class="cls-1" x="200.24" y="700.85" width="100.12" height="100.12"/>
  <rect class="cls-1" x="300.36" y="700.85" width="100.12" height="100.12"/>
  <rect class="cls-1" x="400.49" y="700.85" width="100.12" height="100.12"/>
  <rect class="cls-1" x="500.61" y="700.85" width="100.12" height="100.12"/>
  <rect class="cls-1" x="600.73" y="700.85" width="100.12" height="100.12"/>
  <rect class="cls-1" x="700.85" y="700.85" width="100.12" height="100.12"/>
</svg>